<?xml version="1.0" encoding="utf-8"?>
<!-- Generator: Adobe Illustrator 24.0.2, SVG Export Plug-In . SVG Version: 6.00 Build 0)  -->
<svg version="1.1" id="_x2014_ÎÓÈ_x5F_1" xmlns="http://www.w3.org/2000/svg" xmlns:xlink="http://www.w3.org/1999/xlink"
	 x="0px" y="0px" viewBox="0 0 1200 1200" style="enable-background:new 0 0 1200 1200;" xml:space="preserve">
<style type="text/css">
	.st0{fill:#FFFFFF;}
</style>
<path class="st0" d="M659.06,200H540.94c-73.27,0-132.88,59.61-132.88,132.88V704.7c0,40.71,33.12,73.82,73.82,73.82h73.82V955.7
	c0,24.46,19.83,44.29,44.29,44.29l0,0c24.46,0,44.29-19.83,44.29-44.29V778.53h73.82c40.71,0,73.82-33.12,73.82-73.82V332.88
	C791.94,259.61,732.33,200,659.06,200z M481.88,615.63c0,16.09,12.62,29.69,28.7,30.13c16.69,0.46,30.36-12.93,30.36-29.52v-49.17
	c0-16.09,12.62-29.69,28.7-30.13c16.69-0.46,30.36,12.93,30.36,29.52v103.59c0,16.09,12.62,29.69,28.7,30.13
	c16.69,0.46,30.36-12.93,30.36-29.52V512.65c0-16.09,12.62-29.69,28.7-30.13c16.69-0.46,30.36,12.93,30.36,29.52v49.79
	c0,16.31,13.22,29.53,29.53,29.53h14.76V704.7c0,24.42-19.87,44.29-44.29,44.29H481.88c-24.42,0-44.29-19.87-44.29-44.29V536.93
	h14.76c16.31,0,29.53,13.22,29.53,29.53"/>
</svg>
