<?xml version="1.0" encoding="utf-8"?>
<!-- Generator: Adobe Illustrator 24.0.2, SVG Export Plug-In . SVG Version: 6.00 Build 0)  -->
<svg version="1.1" id="_x2014_ÎÓÈ_x5F_1" xmlns="http://www.w3.org/2000/svg" xmlns:xlink="http://www.w3.org/1999/xlink"
	 x="0px" y="0px" viewBox="0 0 1200 1200" style="enable-background:new 0 0 1200 1200;" xml:space="preserve">
<path d="M622.5,128.25H504.38c-73.27,0-132.88,59.61-132.88,132.88v371.82c0,40.71,33.12,73.82,73.82,73.82h73.82v177.18
	c0,24.46,19.83,44.29,44.29,44.29h0c24.46,0,44.29-19.83,44.29-44.29V706.77h73.82c40.71,0,73.82-33.12,73.82-73.82V261.13
	C755.38,187.86,695.77,128.25,622.5,128.25z M445.32,543.88c0,16.09,12.62,29.69,28.7,30.13c16.69,0.46,30.36-12.93,30.36-29.52
	v-49.17c0-16.09,12.62-29.69,28.7-30.13c16.69-0.46,30.36,12.93,30.36,29.52V598.3c0,16.09,12.62,29.69,28.7,30.13
	c16.69,0.46,30.36-12.93,30.36-29.52V440.9c0-16.09,12.62-29.69,28.7-30.13c16.69-0.46,30.36,12.93,30.36,29.52v49.79
	c0,16.31,13.22,29.53,29.53,29.53h14.76v113.35c0,24.42-19.87,44.29-44.29,44.29H445.32c-24.42,0-44.29-19.87-44.29-44.29V465.17
	h14.76c16.31,0,29.53,13.22,29.53,29.53"/>
</svg>
